<mxfile host="app.diagrams.net" modified="2023-06-18T23:40:08.744Z" agent="Mozilla/5.0 (Windows NT 10.0; Win64; x64; rv:109.0) Gecko/20100101 Firefox/114.0" etag="hTnay2zZZ_iCn9xH4n0m" version="21.5.0" type="github">
  <diagram name="Page-1" id="nxd_kya7xS_pJ5B8tWJU">
    <mxGraphModel dx="607" dy="299" grid="1" gridSize="10" guides="1" tooltips="1" connect="1" arrows="1" fold="1" page="1" pageScale="1" pageWidth="827" pageHeight="1169" math="0" shadow="0">
      <root>
        <mxCell id="0" />
        <mxCell id="1" parent="0" />
        <mxCell id="tTpLCvCeAeb88BYXopIM-5" value="" style="edgeStyle=orthogonalEdgeStyle;rounded=0;orthogonalLoop=1;jettySize=auto;html=1;" parent="1" source="tTpLCvCeAeb88BYXopIM-2" target="tTpLCvCeAeb88BYXopIM-4" edge="1">
          <mxGeometry relative="1" as="geometry" />
        </mxCell>
        <mxCell id="tTpLCvCeAeb88BYXopIM-2" value="Pengguna membuka sistem informasi penjualan." style="rounded=0;whiteSpace=wrap;html=1;" parent="1" vertex="1">
          <mxGeometry x="350" y="340" width="120" height="60" as="geometry" />
        </mxCell>
        <mxCell id="tTpLCvCeAeb88BYXopIM-7" value="" style="edgeStyle=orthogonalEdgeStyle;rounded=0;orthogonalLoop=1;jettySize=auto;html=1;" parent="1" source="tTpLCvCeAeb88BYXopIM-4" target="tTpLCvCeAeb88BYXopIM-6" edge="1">
          <mxGeometry relative="1" as="geometry" />
        </mxCell>
        <mxCell id="tTpLCvCeAeb88BYXopIM-4" value="Pengguna memasukkan informasi produk dan informasi pembeli." style="rounded=0;whiteSpace=wrap;html=1;" parent="1" vertex="1">
          <mxGeometry x="350" y="480" width="120" height="60" as="geometry" />
        </mxCell>
        <mxCell id="tTpLCvCeAeb88BYXopIM-9" value="" style="edgeStyle=orthogonalEdgeStyle;rounded=0;orthogonalLoop=1;jettySize=auto;html=1;" parent="1" source="tTpLCvCeAeb88BYXopIM-6" target="tTpLCvCeAeb88BYXopIM-8" edge="1">
          <mxGeometry relative="1" as="geometry" />
        </mxCell>
        <mxCell id="tTpLCvCeAeb88BYXopIM-6" value="Sistem melakukan validasi terhadap informasi yang dimasukkan." style="rounded=0;whiteSpace=wrap;html=1;" parent="1" vertex="1">
          <mxGeometry x="340" y="590" width="140" height="90" as="geometry" />
        </mxCell>
        <mxCell id="tTpLCvCeAeb88BYXopIM-11" value="" style="edgeStyle=orthogonalEdgeStyle;rounded=0;orthogonalLoop=1;jettySize=auto;html=1;" parent="1" source="tTpLCvCeAeb88BYXopIM-8" target="tTpLCvCeAeb88BYXopIM-10" edge="1">
          <mxGeometry relative="1" as="geometry" />
        </mxCell>
        <mxCell id="tTpLCvCeAeb88BYXopIM-8" value="" style="rounded=0;whiteSpace=wrap;html=1;" parent="1" vertex="1">
          <mxGeometry x="350" y="760" width="120" height="60" as="geometry" />
        </mxCell>
        <mxCell id="tTpLCvCeAeb88BYXopIM-13" value="" style="edgeStyle=orthogonalEdgeStyle;rounded=0;orthogonalLoop=1;jettySize=auto;html=1;" parent="1" source="tTpLCvCeAeb88BYXopIM-10" target="tTpLCvCeAeb88BYXopIM-12" edge="1">
          <mxGeometry relative="1" as="geometry" />
        </mxCell>
        <mxCell id="tTpLCvCeAeb88BYXopIM-10" value="" style="rounded=0;whiteSpace=wrap;html=1;" parent="1" vertex="1">
          <mxGeometry x="550" y="760" width="120" height="60" as="geometry" />
        </mxCell>
        <mxCell id="tTpLCvCeAeb88BYXopIM-15" value="" style="edgeStyle=orthogonalEdgeStyle;rounded=0;orthogonalLoop=1;jettySize=auto;html=1;" parent="1" source="tTpLCvCeAeb88BYXopIM-12" target="tTpLCvCeAeb88BYXopIM-14" edge="1">
          <mxGeometry relative="1" as="geometry" />
        </mxCell>
        <mxCell id="tTpLCvCeAeb88BYXopIM-12" value="" style="rounded=0;whiteSpace=wrap;html=1;" parent="1" vertex="1">
          <mxGeometry x="550" y="620" width="120" height="60" as="geometry" />
        </mxCell>
        <mxCell id="tTpLCvCeAeb88BYXopIM-17" value="" style="edgeStyle=orthogonalEdgeStyle;rounded=0;orthogonalLoop=1;jettySize=auto;html=1;" parent="1" source="tTpLCvCeAeb88BYXopIM-14" target="tTpLCvCeAeb88BYXopIM-16" edge="1">
          <mxGeometry relative="1" as="geometry" />
        </mxCell>
        <mxCell id="tTpLCvCeAeb88BYXopIM-14" value="" style="rounded=0;whiteSpace=wrap;html=1;" parent="1" vertex="1">
          <mxGeometry x="550" y="480" width="120" height="60" as="geometry" />
        </mxCell>
        <mxCell id="tTpLCvCeAeb88BYXopIM-16" value="" style="rounded=0;whiteSpace=wrap;html=1;" parent="1" vertex="1">
          <mxGeometry x="550" y="340" width="120" height="60" as="geometry" />
        </mxCell>
        <mxCell id="tTpLCvCeAeb88BYXopIM-20" value="" style="ellipse;whiteSpace=wrap;html=1;" parent="1" vertex="1">
          <mxGeometry x="20" y="490" width="120" height="80" as="geometry" />
        </mxCell>
      </root>
    </mxGraphModel>
  </diagram>
</mxfile>
